<svg width="253" height="46" viewBox="0 0 253 46" fill="none" xmlns="http://www.w3.org/2000/svg">
<g clip-path="url(#clip0_1713_95)">
<rect width="253" height="46" fill="#0E0E0E"/>
<rect x="49.7031" y="0.285156" width="1" height="53.5402" transform="rotate(33.0814 49.7031 0.285156)" fill="#4E784A"/>
<rect x="39.2266" y="0.285156" width="1" height="53.5402" transform="rotate(33.0814 39.2266 0.285156)" fill="#4E784A"/>
<rect x="27.2266" y="0.285156" width="1" height="53.5402" transform="rotate(33.0814 27.2266 0.285156)" fill="#4E784A"/>
<rect x="15.2266" y="0.285156" width="1" height="53.5402" transform="rotate(33.0814 15.2266 0.285156)" fill="#4E784A"/>
<rect x="90.2266" y="0.285156" width="1" height="53.5402" transform="rotate(33.0814 90.2266 0.285156)" fill="#4E784A"/>
<rect x="131.227" y="0.285156" width="1" height="53.5402" transform="rotate(33.0814 131.227 0.285156)" fill="#4E784A"/>
<rect x="172.227" y="0.285156" width="1" height="53.5402" transform="rotate(33.0814 172.227 0.285156)" fill="#4E784A"/>
<rect x="213.227" y="0.285156" width="1" height="53.5402" transform="rotate(33.0814 213.227 0.285156)" fill="#4E784A"/>
<rect x="253.227" y="0.285156" width="1" height="53.5402" transform="rotate(33.0814 253.227 0.285156)" fill="#4E784A"/>
<rect x="262.227" y="0.285156" width="1" height="53.5402" transform="rotate(33.0814 262.227 0.285156)" fill="#4E784A"/>
<rect x="60.2266" y="0.285156" width="1" height="53.5402" transform="rotate(33.0814 60.2266 0.285156)" fill="#4E784A"/>
<rect x="100.75" y="0.285156" width="1" height="53.5402" transform="rotate(33.0814 100.75 0.285156)" fill="#4E784A"/>
<rect x="141.75" y="0.285156" width="1" height="53.5402" transform="rotate(33.0814 141.75 0.285156)" fill="#4E784A"/>
<rect x="182.75" y="0.285156" width="1" height="53.5402" transform="rotate(33.0814 182.75 0.285156)" fill="#4E784A"/>
<rect x="223.75" y="0.285156" width="1" height="53.5402" transform="rotate(33.0814 223.75 0.285156)" fill="#4E784A"/>
<rect x="70.2266" y="0.285156" width="1" height="53.5402" transform="rotate(33.0814 70.2266 0.285156)" fill="#4E784A"/>
<rect x="110.75" y="0.285156" width="1" height="53.5402" transform="rotate(33.0814 110.75 0.285156)" fill="#4E784A"/>
<rect x="151.75" y="0.285156" width="1" height="53.5402" transform="rotate(33.0814 151.75 0.285156)" fill="#4E784A"/>
<rect x="192.75" y="0.285156" width="1" height="53.5402" transform="rotate(33.0814 192.75 0.285156)" fill="#4E784A"/>
<rect x="233.75" y="0.285156" width="1" height="53.5402" transform="rotate(33.0814 233.75 0.285156)" fill="#4E784A"/>
<rect x="80.2266" y="0.285156" width="1" height="53.5402" transform="rotate(33.0814 80.2266 0.285156)" fill="#4E784A"/>
<rect x="120.75" y="0.285156" width="1" height="53.5402" transform="rotate(33.0814 120.75 0.285156)" fill="#4E784A"/>
<rect x="161.75" y="0.285156" width="1" height="53.5402" transform="rotate(33.0814 161.75 0.285156)" fill="#4E784A"/>
<rect x="202.75" y="0.285156" width="1" height="53.5402" transform="rotate(33.0814 202.75 0.285156)" fill="#4E784A"/>
<rect x="243.75" y="0.285156" width="1" height="53.5402" transform="rotate(33.0814 243.75 0.285156)" fill="#4E784A"/>
</g>
<defs>
<clipPath id="clip0_1713_95">
<rect width="253" height="46" fill="white"/>
</clipPath>
</defs>
</svg>
